<svg xmlns="http://www.w3.org/2000/svg" xmlns:xlink="http://www.w3.org/1999/xlink" viewBox="0 0 24 24" width="24" height="24" preserveAspectRatio="xMidYMid meet" style="width: 100%; height: 100%; transform: translate3d(0px, 0px, 0px); content-visibility: visible;"><defs><clipPath id="__lottie_element_44"><rect width="24" height="24" x="0" y="0"></rect></clipPath><clipPath id="__lottie_element_46"><path d="M0,0 L600,0 L600,600 L0,600z"></path></clipPath><clipPath id="__lottie_element_53"><path d="M0,0 L1000,0 L1000,1000 L0,1000z"></path></clipPath><clipPath id="__lottie_element_63"><path d="M0,0 L1000,0 L1000,1000 L0,1000z"></path></clipPath><mask id="__lottie_element_64"><rect fill="#ffffff" width="600" height="600" transform="matrix(0.9615384936332703,0,0,0.9615384936332703,211.53846740722656,211.53846740722656)"></rect><path fill="#000000" clip-rule="nonzero" d=" M67.22000122070312,823.7960205078125 C67.22000122070312,823.7960205078125 -126.3030014038086,1017.75 -126.3030014038086,1017.75 C-126.3030014038086,1017.75 -76.63800048828125,1067.092041015625 -76.63800048828125,1067.092041015625 C-76.63800048828125,1067.092041015625 -22.31999969482422,1121.0560302734375 -22.31999969482422,1121.0560302734375 C-22.31999969482422,1121.0560302734375 171.2030029296875,927.1019897460938 171.2030029296875,927.1019897460938 C171.2030029296875,927.1019897460938 239.677001953125,860.3419799804688 186.88099670410156,810.114013671875 C130,756 67.22000122070312,823.7960205078125 67.22000122070312,823.7960205078125" fill-opacity="1"></path></mask><clipPath id="__lottie_element_67"><path d="M0,0 L1000,0 L1000,1000 L0,1000z"></path></clipPath><path></path><clipPath id="__lottie_element_74"><path d="M0,0 L1000,0 L1000,1000 L0,1000z"></path></clipPath><path d=" M0.5009999871253967,-0.10000000149011612 C0.5009999871253967,-0.10000000149011612 -0.09300000220537186,-0.10000000149011612 -0.09300000220537186,-0.10000000149011612 C-0.09300000220537186,-0.10000000149011612 -0.09300000220537186,1.0759999752044678 -0.09300000220537186,1.0759999752044678 C-0.09300000220537186,1.0759999752044678 0.5009999871253967,1.0759999752044678 0.5009999871253967,1.0759999752044678 C0.5009999871253967,1.0759999752044678 0.5009999871253967,-0.10000000149011612 0.5009999871253967,-0.10000000149011612" fill-opacity="1"></path><clipPath id="__lottie_element_81"><path d="M0,0 L1000,0 L1000,1000 L0,1000z"></path></clipPath><mask id="__lottie_element_82"><rect fill="#ffffff" width="600" height="600" transform="matrix(0.9615384936332703,0,0,0.9615384936332703,211.53846740722656,211.53846740722656)"></rect><path fill="#000000" clip-rule="nonzero" d=" M681.219970703125,212.79600524902344 C681.219970703125,212.79600524902344 215.69700622558594,681.75 215.69700622558594,681.75 C215.69700622558594,681.75 151.75999450683594,749.2319946289062 201.13699340820312,798.8619995117188 C255,853 319.67999267578125,785.0560302734375 319.67999267578125,785.0560302734375 C319.67999267578125,785.0560302734375 785.2030029296875,316.10198974609375 785.2030029296875,316.10198974609375 C785.2030029296875,316.10198974609375 868,234 816.2150268554688,184.4459991455078 C764.781005859375,135.22799682617188 681.219970703125,212.79600524902344 681.219970703125,212.79600524902344" fill-opacity="1"></path></mask><clipPath id="__lottie_element_85"><path d="M0,0 L1000,0 L1000,1000 L0,1000z"></path></clipPath><path></path><clipPath id="__lottie_element_92"><path d="M0,0 L1000,0 L1000,1000 L0,1000z"></path></clipPath><path d=" M0.5009999871253967,-0.10000000149011612 C0.5009999871253967,-0.10000000149011612 -0.09300000220537186,-0.10000000149011612 -0.09300000220537186,-0.10000000149011612 C-0.09300000220537186,-0.10000000149011612 -0.09300000220537186,1.0759999752044678 -0.09300000220537186,1.0759999752044678 C-0.09300000220537186,1.0759999752044678 0.5009999871253967,1.0759999752044678 0.5009999871253967,1.0759999752044678 C0.5009999871253967,1.0759999752044678 0.5009999871253967,-0.10000000149011612 0.5009999871253967,-0.10000000149011612" fill-opacity="1"></path></defs><g clip-path="url(#__lottie_element_44)"><g clip-path="url(#__lottie_element_46)" transform="matrix(0.03999999910593033,0,0,0.03999999910593033,0,0)" opacity="1" style="display: block;"><g clip-path="url(#__lottie_element_81)" transform="matrix(1.0399999618530273,0,0,1.0399999618530273,-220,-220)" opacity="1" style="display: block;"><g mask="url(#__lottie_element_82)"><g clip-path="url(#__lottie_element_92)" transform="matrix(1,0,0,1,0,0)" opacity="1" style="display: block;"><g transform="matrix(25,0,0,25,200,200)" opacity="1" style="display: block;"><g opacity="1" transform="matrix(1,0,0,1,12,12.288000106811523)"><path fill="{{COLOR}}" fill-opacity="1" d=" M-8,-0.2879999876022339 C-8,-4.705999851226807 -4.418000221252441,-8.288000106811523 0,-8.288000106811523 C4.418000221252441,-8.288000106811523 8,-4.705999851226807 8,-0.2879999876022339 C8,0.4050000011920929 7.953999996185303,1.0720000267028809 7.854000091552734,1.7120000123977661 C7.854000091552734,1.7120000123977661 6,1.7120000123977661 6,1.7120000123977661 C5.056000232696533,1.7120000123977661 4.166999816894531,2.1570000648498535 3.5999999046325684,2.9119999408721924 C3.5999999046325684,2.9119999408721924 1.6269999742507935,5.541999816894531 1.6269999742507935,5.541999816894531 C1.1579999923706055,6.168000221252441 1.0360000133514404,6.98799991607666 1.3040000200271606,7.7230000495910645 C1.8890000581741333,9.331999778747559 3.88700008392334,10.288000106811523 5.48199987411499,9.131999969482422 C8.83899974822998,6.701000213623047 10,3.380000114440918 10,-0.2879999876022339 C10,-5.810999870300293 5.5229997634887695,-10.288000106811523 0,-10.288000106811523 C-5.5229997634887695,-10.288000106811523 -10,-5.810999870300293 -10,-0.2879999876022339 C-10,3.380000114440918 -8.83899974822998,6.701000213623047 -5.48199987411499,9.131999969482422 C-3.88700008392334,10.288000106811523 -1.8890000581741333,9.331999778747559 -1.3040000200271606,7.7230000495910645 C-1.0360000133514404,6.98799991607666 -1.1579999923706055,6.168000221252441 -1.6269999742507935,5.541999816894531 C-1.6269999742507935,5.541999816894531 -3.5999999046325684,2.9119999408721924 -3.5999999046325684,2.9119999408721924 C-4.166999816894531,2.1570000648498535 -5.056000232696533,1.7120000123977661 -6,1.7120000123977661 C-6,1.7120000123977661 -7.854000091552734,1.7120000123977661 -7.854000091552734,1.7120000123977661 C-7.953999996185303,1.0720000267028809 -8,0.4050000011920929 -8,-0.2879999876022339z"></path></g></g></g><g clip-path="url(#__lottie_element_85)" style="display: none;"><g style="display: none;"><g><path></path></g></g></g></g></g><g clip-path="url(#__lottie_element_63)" style="display: none;" transform="matrix(1.0399999618530273,0,0,1.0399999618530273,-220,-220)" opacity="1"><g mask="url(#__lottie_element_64)"><g clip-path="url(#__lottie_element_74)" style="display: block;" transform="matrix(1,0,0,1,0,0)" opacity="1"><g style="display: block;" transform="matrix(25,0,0,25,200,200)" opacity="1"><g opacity="1" transform="matrix(1,0,0,1,12,12.288000106811523)"><path fill="{{COLOR}}" fill-opacity="1" d=" M-8.3402681350708,-1.2658427953720093 C-7.624541282653809,-5.172128677368164 -4.418000221252441,-8.288000106811523 0,-8.288000106811523 C4.418000221252441,-8.288000106811523 7.728468894958496,-5.2505598068237305 8.378841400146484,-1.1491420269012451 C8.489941596984863,-0.47664809226989746 8.595746994018555,0.16484588384628296 8.62261962890625,0.7985789775848389 C8.62261962890625,0.7985789775848389 6.842930793762207,1.1552256345748901 6.842930793762207,1.1552256345748901 C5.936923027038574,1.3362619876861572 5.169170379638672,1.9336529970169067 4.769867897033691,2.767681121826172 C4.769867897033691,2.767681121826172 3.3804235458374023,5.671423435211182 3.3804235458374023,5.671423435211182 C3.0503761768341064,6.362212181091309 3.091440439224243,7.172618865966797 3.489452838897705,7.826929092407227 C4.359856128692627,9.259024620056152 6.461235046386719,9.79364013671875 7.771043300628662,8.377802848815918 C10.5269136428833,5.399363040924072 11.04430103302002,1.8576500415802002 10.33867359161377,-1.7073338031768799 C9.461353302001953,-6.455356121063232 5.5229997634887695,-10.288000106811523 0,-10.288000106811523 C-5.5229997634887695,-10.288000106811523 -9.2728271484375,-6.401491165161133 -10.309048652648926,-1.7389793395996094 C-11.150683403015137,1.7808928489685059 -10.596861839294434,5.34316349029541 -7.898505210876465,8.384025573730469 C-6.615964412689209,9.82925796508789 -4.50015115737915,9.336749076843262 -3.598986864089966,7.91965389251709 C-3.1864206790924072,7.272343635559082 -3.1298024654388428,6.461670398712158 -3.4462363719940186,5.76263427734375 C-3.4462363719940186,5.76263427734375 -4.777939796447754,2.8259639739990234 -4.777939796447754,2.8259639739990234 C-5.161321640014648,1.9823819398880005 -5.918420791625977,1.3681304454803467 -6.822715759277344,1.1678868532180786 C-6.822715759277344,1.1678868532180786 -8.701667785644531,0.9616590738296509 -8.701667785644531,0.9616590738296509 C-8.718779563903809,0.32023271918296814 -8.470216751098633,-0.5916954874992371 -8.3402681350708,-1.2658427953720093z"></path></g></g></g><g clip-path="url(#__lottie_element_67)" style="display: none;"><g style="display: none;"><g><path></path></g></g></g></g></g><g clip-path="url(#__lottie_element_53)" transform="matrix(1,0,0,1,-200,-200)" opacity="1" style="display: block;"><g style="display: block;" transform="matrix(25,0,0,25,200,200)" opacity="1"><g opacity="1" transform="matrix(1,0,0,1,12,12)"><path stroke-linecap="round" stroke-linejoin="miter" fill-opacity="0" stroke-miterlimit="4" stroke="{{COLOR}}" stroke-opacity="1" stroke-width="2" d=" M-10,10 C-10,10 10,-10 10,-10"></path></g></g><g style="display: none;" transform="matrix(25,0,0,25,200,200)" opacity="1"><g opacity="1" transform="matrix(1,0,0,1,12,12)"><path stroke-linecap="round" stroke-linejoin="miter" fill-opacity="0" stroke-miterlimit="4" stroke="{{COLOR}}" stroke-opacity="1" stroke-width="2" d=" M-10,10 C-10,10 10,-10 10,-10"></path></g></g></g><g style="display: none;"><g><path stroke-linecap="round" stroke-linejoin="miter" fill-opacity="0" stroke-miterlimit="4"></path></g></g></g></g></svg>